<?xml version="1.0" encoding="UTF-8"?>
<svg id="Warstwa_1" data-name="Warstwa 1" xmlns="http://www.w3.org/2000/svg" viewBox="0 0 51 51">
  <defs>
    <style>
      .cls-1 {
        fill: #8d8d8d;
        stroke-width: 0px;
      }
    </style>
  </defs>
  <path class="cls-1" d="m43.16,50.51H7.84c-4.05,0-7.34-3.29-7.34-7.34V7.85C.5,3.8,3.79.51,7.84.51h35.32c4.05,0,7.34,3.29,7.34,7.34v35.32c0,4.05-3.29,7.34-7.34,7.34ZM7.84,3.3c-2.51,0-4.55,2.04-4.55,4.55v35.32c0,2.51,2.04,4.55,4.55,4.55h35.32c2.51,0,4.55-2.04,4.55-4.55V7.85c0-2.51-2.04-4.55-4.55-4.55H7.84Z"/>
  <path class="cls-1" d="m31.18,15.31h2.63v-5.72h-3.96c-5.61,0-8.27,3.33-8.27,8.09v4.5h-4.39v5.44h4.39v13.83h6.59v-13.83h4.39l1.25-5.43h-5.64v-3.71c0-1.52.83-3.16,3.01-3.16Z"/>
</svg>