<?xml version="1.0" encoding="UTF-8"?>
<svg id="Warstwa_1" data-name="Warstwa 1" xmlns="http://www.w3.org/2000/svg" viewBox="0 0 51 51">
  <defs>
    <style>
      .cls-1 {
        fill: #8d8d8d;
        stroke-width: 0px;
      }
    </style>
  </defs>
  <path class="cls-1" d="m43.17,50.5H7.83c-4.04,0-7.33-3.29-7.33-7.33V7.83C.5,3.79,3.79.5,7.83.5h35.34c4.04,0,7.33,3.29,7.33,7.33v35.34c0,4.04-3.29,7.33-7.33,7.33ZM7.83,3.29c-2.5,0-4.54,2.04-4.54,4.54v35.34c0,2.5,2.04,4.54,4.54,4.54h35.34c2.5,0,4.54-2.04,4.54-4.54V7.83c0-2.5-2.04-4.54-4.54-4.54H7.83Z"/>
  <g>
    <path class="cls-1" d="m10.63,18.66c.26-1.36.5-2.72,1.24-3.93,1.69-2.76,4.33-3.82,7.38-3.89,4.15-.1,8.31-.1,12.47,0,2.82.07,5.33,1,7.05,3.44,1.11,1.57,1.52,3.38,1.55,5.24.06,3.99.09,7.99,0,11.98-.07,3.22-1.19,5.96-4.2,7.59-1.39.75-2.91,1.08-4.47,1.1-4.1.05-8.21.09-12.31,0-3.08-.07-5.75-1.11-7.46-3.9-.74-1.21-.98-2.57-1.25-3.93v-13.7Zm14.88-5.01c-2.04,0-4.08-.04-6.11,0-3.18.07-5.14,1.57-5.72,4.31-.12.58-.21,1.18-.22,1.78-.02,3.86-.07,7.72,0,11.57.08,3.84,2.02,5.89,5.72,6.03,4.18.15,8.37.14,12.55,0,3.08-.1,4.92-1.59,5.51-4.25.11-.48.21-.97.21-1.45.02-4.4.26-8.8-.13-13.19-.24-2.6-1.98-4.3-4.57-4.65-2.41-.33-4.83-.1-7.24-.14Z"/>
    <path class="cls-1" d="m33.17,25.56c-.01,4.14-3.45,7.55-7.67,7.6-4.24.05-7.75-3.45-7.74-7.7.01-4.18,3.58-7.68,7.76-7.6,4.28.08,7.67,3.49,7.66,7.7Zm-2.86-.04c0-2.64-2.17-4.8-4.84-4.81-2.65-.01-4.86,2.16-4.86,4.79,0,2.64,2.17,4.8,4.84,4.81,2.65.01,4.86-2.16,4.86-4.79Z"/>
    <path class="cls-1" d="m33.38,15.84c1.02-.01,1.89.83,1.88,1.84,0,.97-.83,1.79-1.82,1.82-1.02.03-1.9-.8-1.92-1.81-.02-1.01.81-1.84,1.86-1.86Z"/>
  </g>
</svg>