<?xml version="1.0" encoding="UTF-8"?>
<svg id="Warstwa_1" data-name="Warstwa 1" xmlns="http://www.w3.org/2000/svg" viewBox="0 0 51 51">
  <defs>
    <style>
      .cls-1 {
        fill: #8d8d8d;
        stroke-width: 0px;
      }
    </style>
  </defs>
  <path class="cls-1" d="m43.17,50.5H7.83c-4.04,0-7.33-3.29-7.33-7.33V7.83C.5,3.79,3.79.5,7.83.5h35.35c4.04,0,7.33,3.29,7.33,7.33v35.35c0,4.04-3.29,7.33-7.33,7.33ZM7.83,3.29c-2.5,0-4.54,2.03-4.54,4.54v35.34c0,2.5,2.03,4.54,4.54,4.54h35.34c2.5,0,4.54-2.03,4.54-4.54V7.83c0-2.5-2.03-4.54-4.54-4.54H7.83Z"/>
  <g>
    <path class="cls-1" d="m30.87,25.36c.01.07.02.14.01.22.02-.07.02-.14-.01-.22Z"/>
    <path class="cls-1" d="m25.5,13.61c-15.17,0-15.44,1.35-15.44,11.89s.27,11.89,15.44,11.89,15.44-1.35,15.44-11.89-.27-11.89-15.44-11.89Zm4.92,12.66l-6.97,3.37c-.56.27-1.21-.14-1.21-.76v-6.58c0-.62.64-1.02,1.2-.77l6.97,3.21c.27.12.42.36.47.61.03.07.03.14.01.22-.02.28-.17.56-.47.7Z"/>
  </g>
</svg>