<svg id="Favicon_-_128x128" data-name="Favicon - 128x128" xmlns="http://www.w3.org/2000/svg" width="128" height="128" viewBox="0 0 128 128">
  <rect id="Rectangle_233" data-name="Rectangle 233" width="128" height="128" rx="5" fill="#fff"/>
  <path id="Path_60" data-name="Path 60" d="M47.344,91.7,28.3,57.126H22.955V91.7H.65V.1H38.085C45.3.1,51.469,1.363,56.54,3.888A26.07,26.07,0,0,1,67.966,14.262,28.931,28.931,0,0,1,71.754,28.95,27.3,27.3,0,0,1,66.6,45.258q-5.145,7.165-15.193,10.164L72.533,91.7H47.344ZM22.955,41.344H36.781c4.082,0,7.155-1.01,9.2-3.009s3.072-4.84,3.072-8.48-1.01-6.229-3.072-8.228c-2.041-2-5.113-3.009-9.2-3.009H22.955V41.323Z" transform="translate(21.064 10.727)" fill="#1d1d1b"/>
  <path id="Path_66" data-name="Path 66" d="M-19506.312-11409.734h-115.547v-8.375h107.172V-11525.3h8.375Z" transform="translate(19628.086 11531.516)" fill="#fecb00"/>
</svg>
