<svg id="Layer_1" data-name="Layer 1" xmlns="http://www.w3.org/2000/svg" width="440.71" height="128.81" viewBox="0 0 440.71 128.81">
  <g id="Group_857" data-name="Group 857">
    <g id="Group_854" data-name="Group 854">
      <path id="Path_26" data-name="Path 26" d="M40.53,128.62H36.6l-6.58-9.96v9.96H26.09V112.47h3.93l6.58,10v-10h3.93Z" fill="#242423"/>
      <path id="Path_27" data-name="Path 27" d="M47.42,127.72a7.851,7.851,0,0,1-3.01-2.96,8.323,8.323,0,0,1-1.12-4.27,8.1,8.1,0,0,1,1.12-4.25,7.868,7.868,0,0,1,3.01-2.94,8.732,8.732,0,0,1,8.34,0,7.819,7.819,0,0,1,2.99,2.94,8.327,8.327,0,0,1,1.09,4.25,8.434,8.434,0,0,1-1.1,4.27,7.8,7.8,0,0,1-2.99,2.96,8.713,8.713,0,0,1-8.33,0Zm7.27-3.82a4.9,4.9,0,0,0,1.16-3.4,4.955,4.955,0,0,0-1.16-3.42,3.95,3.95,0,0,0-3.09-1.28,4.056,4.056,0,0,0-3.12,1.27,5.636,5.636,0,0,0,0,6.85,3.971,3.971,0,0,0,3.12,1.28,3.914,3.914,0,0,0,3.09-1.29Z" fill="#242423"/>
      <path id="Path_28" data-name="Path 28" d="M84.83,112.47l-4.21,16.15H75.86l-2.58-10.63-2.67,10.63H65.85l-4.09-16.15h4.21l2.32,11.75,2.88-11.75h4.32l2.76,11.75,2.35-11.75h4.23Z" fill="#242423"/>
      <path id="Path_29" data-name="Path 29" d="M90.84,127.72a7.851,7.851,0,0,1-3.01-2.96,8.323,8.323,0,0,1-1.12-4.27,8.1,8.1,0,0,1,1.12-4.25,7.868,7.868,0,0,1,3.01-2.94,8.732,8.732,0,0,1,8.34,0,7.818,7.818,0,0,1,2.99,2.94,8.327,8.327,0,0,1,1.09,4.25,8.434,8.434,0,0,1-1.1,4.27,7.8,7.8,0,0,1-2.99,2.96,8.713,8.713,0,0,1-8.33,0Zm7.27-3.82a4.9,4.9,0,0,0,1.16-3.4,4.955,4.955,0,0,0-1.16-3.42,3.95,3.95,0,0,0-3.09-1.28,4.056,4.056,0,0,0-3.12,1.27,5.636,5.636,0,0,0,0,6.85,3.971,3.971,0,0,0,3.12,1.28,3.914,3.914,0,0,0,3.09-1.29Z" fill="#242423"/>
      <path id="Path_30" data-name="Path 30" d="M106.4,116.26a7.379,7.379,0,0,1,2.89-2.92,8.34,8.34,0,0,1,4.2-1.05,8.023,8.023,0,0,1,4.92,1.52,7.3,7.3,0,0,1,2.74,4.14h-4.32a3.493,3.493,0,0,0-1.37-1.54,3.867,3.867,0,0,0-2.01-.53,3.73,3.73,0,0,0-2.94,1.27,5.62,5.62,0,0,0,0,6.76,3.755,3.755,0,0,0,2.94,1.26,3.867,3.867,0,0,0,2.01-.53,3.493,3.493,0,0,0,1.37-1.54h4.32a7.231,7.231,0,0,1-2.74,4.13,8.082,8.082,0,0,1-4.92,1.51,8.393,8.393,0,0,1-4.2-1.05,7.485,7.485,0,0,1-2.89-2.91,9.265,9.265,0,0,1,0-8.53Z" fill="#242423"/>
      <path id="Path_31" data-name="Path 31" d="M128.32,125.4h6.95v3.22H123.86v-2.99l6.9-9.94h-6.9v-3.22h11.41v2.99l-6.95,9.94Z" fill="#242423"/>
      <path id="Path_32" data-name="Path 32" d="M142.35,115.63v3.27h5.27v3.04h-5.27v3.54h5.96v3.15h-9.89V112.48h9.89v3.15h-5.96Z" fill="#242423"/>
      <path id="Path_33" data-name="Path 33" d="M154.1,128.21a5.122,5.122,0,0,1-2.24-1.7,4.649,4.649,0,0,1-.89-2.71h4.19a2.048,2.048,0,0,0,.62,1.37,2.007,2.007,0,0,0,1.38.47,2.177,2.177,0,0,0,1.38-.4,1.347,1.347,0,0,0,.51-1.12,1.311,1.311,0,0,0-.4-.99,3.132,3.132,0,0,0-.99-.64,14.824,14.824,0,0,0-1.67-.57,17.044,17.044,0,0,1-2.55-.97,4.641,4.641,0,0,1-1.7-1.43,4.01,4.01,0,0,1-.71-2.46,4.227,4.227,0,0,1,1.63-3.53,6.731,6.731,0,0,1,4.26-1.28,6.851,6.851,0,0,1,4.3,1.28,4.581,4.581,0,0,1,1.75,3.55h-4.25a1.643,1.643,0,0,0-.58-1.23,2.01,2.01,0,0,0-1.36-.45,1.7,1.7,0,0,0-1.15.38,1.454,1.454,0,0,0,.3,2.31,11.763,11.763,0,0,0,2.3.94,21.225,21.225,0,0,1,2.54,1.01,4.9,4.9,0,0,1,1.69,1.4,3.776,3.776,0,0,1,.71,2.37,4.516,4.516,0,0,1-.7,2.51,4.905,4.905,0,0,1-2.04,1.79,7.032,7.032,0,0,1-3.15.67,8.04,8.04,0,0,1-3.17-.58Z" fill="#242423"/>
      <path id="Path_34" data-name="Path 34" d="M180.6,128.62h-3.93l-6.58-9.96v9.96h-3.93V112.47h3.93l6.58,10v-10h3.93Z" fill="#242423"/>
      <path id="Path_35" data-name="Path 35" d="M187.96,115.63v3.27h5.27v3.04h-5.27v3.54h5.96v3.15h-9.89V112.48h9.89v3.15h-5.96Z" fill="#242423"/>
      <path id="Path_36" data-name="Path 36" d="M206.35,128.22a4.83,4.83,0,0,1-1.97-1.56,4,4,0,0,1-.74-2.31h2.23a3,3,0,0,0,.93,1.9,3.356,3.356,0,0,0,2.38.77,3.411,3.411,0,0,0,2.36-.75,2.443,2.443,0,0,0,.86-1.92,2.2,2.2,0,0,0-.51-1.5,3.275,3.275,0,0,0-1.27-.87,20.039,20.039,0,0,0-2.05-.64,17.611,17.611,0,0,1-2.54-.83,4.082,4.082,0,0,1-1.63-1.3,3.823,3.823,0,0,1-.68-2.38,4.074,4.074,0,0,1,.67-2.32,4.3,4.3,0,0,1,1.87-1.56,6.711,6.711,0,0,1,2.77-.55,5.818,5.818,0,0,1,3.69,1.13,4.148,4.148,0,0,1,1.62,2.99h-2.3a2.5,2.5,0,0,0-.97-1.62,3.421,3.421,0,0,0-2.25-.7,3.286,3.286,0,0,0-2.14.68,2.316,2.316,0,0,0-.83,1.9,2.119,2.119,0,0,0,.49,1.43,3.178,3.178,0,0,0,1.22.84q.72.285,2.04.66a19.134,19.134,0,0,1,2.55.86,4.266,4.266,0,0,1,1.66,1.31,3.8,3.8,0,0,1,.69,2.4,4.269,4.269,0,0,1-.62,2.21,4.563,4.563,0,0,1-1.84,1.68,6.06,6.06,0,0,1-2.88.64,6.788,6.788,0,0,1-2.84-.56Z" fill="#242423"/>
      <path id="Path_37" data-name="Path 37" d="M229.41,112.59l-5.22,9.98v6.05H222.1v-6.05l-5.24-9.98h2.32l3.96,8.12,3.96-8.12h2.32Z" fill="#242423"/>
      <path id="Path_38" data-name="Path 38" d="M234.43,128.22a4.83,4.83,0,0,1-1.97-1.56,4,4,0,0,1-.74-2.31h2.23a3,3,0,0,0,.93,1.9,3.356,3.356,0,0,0,2.38.77,3.411,3.411,0,0,0,2.36-.75,2.443,2.443,0,0,0,.86-1.92,2.2,2.2,0,0,0-.51-1.5,3.275,3.275,0,0,0-1.27-.87,20.039,20.039,0,0,0-2.05-.64,17.611,17.611,0,0,1-2.54-.83,4.082,4.082,0,0,1-1.63-1.3,3.823,3.823,0,0,1-.68-2.38,4.074,4.074,0,0,1,.67-2.32,4.3,4.3,0,0,1,1.87-1.56,6.711,6.711,0,0,1,2.77-.55,5.818,5.818,0,0,1,3.69,1.13,4.148,4.148,0,0,1,1.62,2.99h-2.3a2.5,2.5,0,0,0-.97-1.62,3.421,3.421,0,0,0-2.25-.7,3.286,3.286,0,0,0-2.14.68,2.316,2.316,0,0,0-.83,1.9,2.119,2.119,0,0,0,.49,1.43,3.178,3.178,0,0,0,1.22.84q.72.285,2.04.66a19.134,19.134,0,0,1,2.55.86,4.266,4.266,0,0,1,1.66,1.31,3.8,3.8,0,0,1,.69,2.4,4.269,4.269,0,0,1-.62,2.21,4.563,4.563,0,0,1-1.84,1.68,6.06,6.06,0,0,1-2.88.64,6.788,6.788,0,0,1-2.84-.56Z" fill="#242423"/>
      <path id="Path_39" data-name="Path 39" d="M256.13,112.59v1.7h-4.37v14.33h-2.09V114.29h-4.39v-1.7h10.86Z" fill="#242423"/>
      <path id="Path_40" data-name="Path 40" d="M261.37,114.29v5.36h5.84v1.73h-5.84v5.52h6.53v1.73h-8.62V112.58h8.62v1.73h-6.53Z" fill="#242423"/>
      <path id="Path_41" data-name="Path 41" d="M287.92,112.7v15.92h-2.09V116.75l-5.29,11.87h-1.47l-5.31-11.89v11.89h-2.09V112.7h2.25l5.89,13.16,5.89-13.16h2.23Z" fill="#242423"/>
      <path id="Path_42" data-name="Path 42" d="M303.26,112.59l-5.22,9.98v6.05h-2.09v-6.05l-5.24-9.98h2.32l3.96,8.12,3.96-8.12h2.32Z" fill="#242423"/>
      <path id="Path_43" data-name="Path 43" d="M322.38,121.08a4.134,4.134,0,0,1,1.15,1.43,4.186,4.186,0,0,1-.2,4.02,4.208,4.208,0,0,1-1.8,1.54,6.375,6.375,0,0,1-2.79.56h-5.98V112.6h5.75a6.471,6.471,0,0,1,2.78.54,3.992,3.992,0,0,1,1.73,1.46,3.834,3.834,0,0,1,.57,2.07,3.6,3.6,0,0,1-.77,2.36,4.318,4.318,0,0,1-2.04,1.35,3.4,3.4,0,0,1,1.6.71Zm-7.53-1.56h3.52a3.412,3.412,0,0,0,2.28-.69,2.372,2.372,0,0,0,.8-1.91,2.4,2.4,0,0,0-.8-1.91,3.473,3.473,0,0,0-2.32-.69h-3.47v5.2Zm6.14,6.65a2.533,2.533,0,0,0,.87-2.05,2.608,2.608,0,0,0-.92-2.1,3.715,3.715,0,0,0-2.46-.77h-3.63v5.66h3.7A3.7,3.7,0,0,0,320.99,126.17Z" fill="#242423"/>
      <path id="Path_44" data-name="Path 44" d="M329.52,112.59v16.03h-2.09V112.59Z" fill="#242423"/>
      <path id="Path_45" data-name="Path 45" d="M335.71,112.59v10.14a4.267,4.267,0,0,0,1.05,3.17,3.964,3.964,0,0,0,2.91,1.03,3.915,3.915,0,0,0,2.89-1.03,4.282,4.282,0,0,0,1.05-3.17V112.59h2.09v10.12a6.618,6.618,0,0,1-.8,3.37,5.133,5.133,0,0,1-2.17,2.04,7.369,7.369,0,0,1-6.14,0,4.938,4.938,0,0,1-2.16-2.04,6.617,6.617,0,0,1-.79-3.37V112.59h2.09Z" fill="#242423"/>
      <path id="Path_46" data-name="Path 46" d="M358.2,128.62l-3.82-6.56h-2.53v6.56h-2.09V112.59h5.17a6.94,6.94,0,0,1,3.07.62,4.271,4.271,0,0,1,1.87,1.68,4.649,4.649,0,0,1-3.19,7.02l4.02,6.72h-2.51Zm-6.35-8.23h3.08a3.483,3.483,0,0,0,2.55-.84,3,3,0,0,0,.85-2.24,2.9,2.9,0,0,0-.84-2.21,3.664,3.664,0,0,0-2.56-.78h-3.08v6.07Z" fill="#242423"/>
      <path id="Path_47" data-name="Path 47" d="M367.52,127.73a7.629,7.629,0,0,1-2.91-2.92,8.857,8.857,0,0,1,0-8.44,7.629,7.629,0,0,1,2.91-2.92,8.452,8.452,0,0,1,8.16,0,7.717,7.717,0,0,1,2.9,2.91,8.97,8.97,0,0,1,0,8.46,7.647,7.647,0,0,1-2.9,2.91,8.452,8.452,0,0,1-8.16,0Zm7.1-1.55a5.562,5.562,0,0,0,2.12-2.23,6.945,6.945,0,0,0,.77-3.36,7.1,7.1,0,0,0-.77-3.37,5.556,5.556,0,0,0-2.1-2.22,6.314,6.314,0,0,0-6.08,0,5.489,5.489,0,0,0-2.1,2.22,7.738,7.738,0,0,0,0,6.73,5.434,5.434,0,0,0,2.12,2.23,6.236,6.236,0,0,0,6.04,0Z" fill="#242423"/>
      <path id="Path_48" data-name="Path 48" d="M403.12,112.59l-4.65,16.03h-2.35l-3.73-12.9-3.86,12.9-2.32.02-4.48-16.05h2.23l3.5,13.59,3.86-13.59h2.35l3.68,13.55,3.52-13.55h2.25Z" fill="#242423"/>
      <path id="Path_49" data-name="Path 49" d="M408.09,114.29v5.36h5.84v1.73h-5.84v5.52h6.53v1.73H406V112.58h8.62v1.73h-6.53Z" fill="#242423"/>
    </g>
    <g id="Group_856" data-name="Group 856">
      <g id="Group_855" data-name="Group 855">
        <path id="Path_50" data-name="Path 50" d="M195.56,22.11V73.5h15.7V22.11ZM210.11,2.43A9.379,9.379,0,0,0,203.46,0a9.645,9.645,0,0,0-6.75,2.43,8.015,8.015,0,0,0-2.61,6.11,7.789,7.789,0,0,0,2.61,6.01,9.527,9.527,0,0,0,6.75,2.43,9.263,9.263,0,0,0,6.65-2.43,7.9,7.9,0,0,0,2.62-6.01,8.131,8.131,0,0,0-2.62-6.11Z" fill="#242423"/>
        <path id="Path_51" data-name="Path 51" d="M261.91,32.27l9.82-9.67a14.984,14.984,0,0,0-4.42-4.09,17.294,17.294,0,0,0-8.98-2.4,16.784,16.784,0,0,0-13.16,5.6q-5.055,5.625-5.09,15.07t4.97,15.11a16.756,16.756,0,0,0,13.12,5.7,17.147,17.147,0,0,0,8.99-2.33,15.555,15.555,0,0,0,6.14-6.85l19.3.08a32.345,32.345,0,0,1-12.29,18.38q-9.165,6.69-22,6.63a37.3,37.3,0,0,1-18.72-4.74,33.1,33.1,0,0,1-12.83-13.04,38.4,38.4,0,0,1-4.54-19.01,38.691,38.691,0,0,1,4.69-19.03A33.032,33.032,0,0,1,239.85,4.7,37.285,37.285,0,0,1,258.6.1q12.84.045,21.95,6.86a32.543,32.543,0,0,1,12.14,18.53h-.02a.2.2,0,0,0,.02.09l-29.12,9.49A16.029,16.029,0,0,0,261.91,32.27Z" fill="#242423"/>
        <path id="Path_52" data-name="Path 52" d="M41.74,44.46q8.04-2.4,12.16-8.14a21.786,21.786,0,0,0,4.13-13.06A23.165,23.165,0,0,0,55,11.51,20.889,20.889,0,0,0,45.86,3.2,32.985,32.985,0,0,0,31.08.18H1.1V73.5H18.97V45.82h4.28L38.5,73.5H58.66L41.74,44.46ZM37.4,30.78c-1.63,1.6-4.09,2.4-7.36,2.4H18.97V15.01H30.04c3.27,0,5.73.8,7.36,2.4a8.773,8.773,0,0,1,2.45,6.58A9.058,9.058,0,0,1,37.4,30.78Z" fill="#242423"/>
        <path id="Path_53" data-name="Path 53" d="M116.83,33.27a23.665,23.665,0,0,0-9.54-9.23,30.33,30.33,0,0,0-27.16,0,23.665,23.665,0,0,0-9.54,9.23,27.125,27.125,0,0,0-3.49,13.9,27.64,27.64,0,0,0,3.44,13.95,23.613,23.613,0,0,0,9.45,9.17A28.293,28.293,0,0,0,93.53,73.5a28.784,28.784,0,0,0,13.62-3.21,23.888,23.888,0,0,0,9.64-9.22,26.974,26.974,0,0,0,3.53-13.9,27.125,27.125,0,0,0-3.49-13.9ZM101.19,56.62a10.234,10.234,0,0,1-7.66,3.3,9.673,9.673,0,0,1-7.48-3.3q-2.985-3.3-2.98-9.45c0-4.1,1.01-7.33,3.02-9.5a9.974,9.974,0,0,1,7.62-3.26,9.821,9.821,0,0,1,7.57,3.31q3.075,3.3,3.07,9.45t-3.16,9.45Z" fill="#242423"/>
        <path id="Path_54" data-name="Path 54" d="M182.03,33.22a22.27,22.27,0,0,0-8.12-9.18,21.221,21.221,0,0,0-11.47-3.21,19.738,19.738,0,0,0-9.45,2.21,16.082,16.082,0,0,0-6.33,5.78V.1H130.97V72.77h15.69V65.61a16.539,16.539,0,0,0,6.33,5.74,19.848,19.848,0,0,0,9.45,2.15,21,21,0,0,0,11.47-3.25,22.53,22.53,0,0,0,8.12-9.27,30.872,30.872,0,0,0,2.98-13.9A30.609,30.609,0,0,0,182.03,33.22ZM165.74,56.39a10.985,10.985,0,0,1-15.92.05q-3.255-3.405-3.26-9.27c0-3.91,1.09-7.01,3.26-9.27a10.594,10.594,0,0,1,7.94-3.39,10.856,10.856,0,0,1,8.03,3.34q3.255,3.36,3.26,9.23T165.74,56.39Z" fill="#242423"/>
        <path id="Path_55" data-name="Path 55" d="M339.42,21.57v7.25a16.07,16.07,0,0,0-6.28-5.78,19.689,19.689,0,0,0-9.5-2.21,21.221,21.221,0,0,0-11.47,3.21,22.27,22.27,0,0,0-8.12,9.18,30.609,30.609,0,0,0-2.98,13.86,30.871,30.871,0,0,0,2.98,13.9,22.53,22.53,0,0,0,8.12,9.27,20.843,20.843,0,0,0,11.38,3.25,19.713,19.713,0,0,0,9.5-2.2,16.922,16.922,0,0,0,6.37-5.78v7.25h15.69V21.57Zm-3.26,34.87a10.926,10.926,0,0,1-15.87-.05q-3.255-3.435-3.26-9.31t3.26-9.23a11.038,11.038,0,0,1,15.87.05q3.27,3.39,3.26,9.27C339.42,51.09,338.34,54.17,336.16,56.44Z" fill="#242423"/>
        <path id="Path_56" data-name="Path 56" d="M414.35,27.58q-5.37-5.835-14.37-5.83a20.481,20.481,0,0,0-9.08,1.97,16.627,16.627,0,0,0-6.42,5.37V22.3H368.79V73.5h15.69V45.7c0-3.42.88-6.09,2.66-7.98a10.406,10.406,0,0,1,14.31,0c1.78,1.89,2.66,4.56,2.66,7.98V73.5h15.6V43.59q0-10.185-5.36-16.01Z" fill="#242423"/>
      </g>
      <path id="Path_57" data-name="Path 57" d="M440.71.1V95.47H0V90.78H435.89V4.92H301.21V.1Z" fill="#242423"/>
    </g>
  </g>
</svg>
