<?xml version="1.0" encoding="UTF-8"?>
<svg id="Warstwa_2" data-name="Warstwa 2" xmlns="http://www.w3.org/2000/svg" viewBox="0 0 261.58 56.66">
  <defs>
    <style>
      .cls-1 {
        fill: #fecb00;
      }

      .cls-2 {
        fill: #d81816;
      }

      .cls-3 {
        fill: #1d1d1b;
      }
    </style>
  </defs>
  <g id="Layer_1" data-name="Layer 1">
    <g>
      <g>
        <path class="cls-3" d="m116.75,8.63c-1.04-.96-1.55-2.15-1.55-3.57s.52-2.66,1.55-3.62c1.04-.96,2.37-1.44,4-1.44s2.91.48,3.95,1.44c1.04.96,1.55,2.17,1.55,3.62s-.52,2.61-1.55,3.57-2.35,1.44-3.95,1.44-2.97-.48-4-1.44Zm8.63,4.49v30.5h-9.31V13.12h9.31Z"/>
        <path class="cls-2" d="m155.44,19.15l5.83-5.74c-.72-.99-1.59-1.8-2.62-2.43-1.56-.94-3.34-1.41-5.33-1.42-3.21-.01-5.81,1.1-7.81,3.32-2,2.23-3.01,5.21-3.02,8.94-.02,3.74.97,6.73,2.95,8.97,1.98,2.24,4.58,3.37,7.79,3.38,1.99,0,3.77-.45,5.34-1.38,1.57-.93,2.78-2.28,3.64-4.07l11.46.05c-1.24,4.62-3.67,8.26-7.29,10.91-3.63,2.65-7.98,3.96-13.06,3.94-4.14-.01-7.85-.95-11.11-2.81-3.26-1.86-5.8-4.44-7.62-7.74s-2.71-7.06-2.69-11.28c.01-4.23.94-7.99,2.78-11.29,1.84-3.3,4.4-5.87,7.68-7.7,3.28-1.84,6.99-2.75,11.13-2.73,5.08.02,9.42,1.38,13.03,4.07,3.6,2.69,6.01,6.36,7.21,11h-.01s0,.04.01.05l-17.28,5.63c-.29-.61-.61-1.16-.99-1.66Z"/>
        <path class="cls-3" d="m22.84,43.63l-9.05-16.43h-2.54v16.43H.65V.1h17.79c3.43,0,6.36.6,8.77,1.8,2.42,1.2,4.23,2.84,5.43,4.93,1.2,2.09,1.8,4.41,1.8,6.98,0,2.89-.82,5.48-2.45,7.75-1.63,2.27-4.04,3.88-7.22,4.83l10.04,17.24h-11.97Zm-11.59-23.93h6.57c1.94,0,3.4-.48,4.37-1.43.97-.95,1.46-2.3,1.46-4.03s-.48-2.96-1.46-3.91c-.97-.95-2.43-1.43-4.37-1.43h-6.57v10.79Z"/>
        <path class="cls-3" d="m47.47,41.72c-2.38-1.27-4.25-3.09-5.61-5.45-1.36-2.36-2.04-5.12-2.04-8.28s.69-5.87,2.07-8.25c1.38-2.38,3.27-4.2,5.66-5.47,2.4-1.27,5.08-1.9,8.06-1.9s5.66.63,8.06,1.9c2.4,1.27,4.28,3.1,5.66,5.47,1.38,2.38,2.07,5.13,2.07,8.25s-.7,5.87-2.1,8.25c-1.4,2.38-3.31,4.2-5.72,5.47-2.42,1.27-5.11,1.91-8.09,1.91s-5.65-.64-8.03-1.91Zm12.58-8.12c1.25-1.31,1.88-3.18,1.88-5.61s-.61-4.3-1.82-5.61c-1.22-1.31-2.71-1.96-4.49-1.96s-3.32.64-4.52,1.93c-1.2,1.29-1.8,3.17-1.8,5.64s.59,4.3,1.77,5.61c1.18,1.31,2.66,1.96,4.44,1.96s3.3-.65,4.55-1.96Z"/>
        <path class="cls-3" d="m90.8,13.67c1.63-.87,3.5-1.31,5.61-1.31,2.51,0,4.77.63,6.81,1.9,2.03,1.27,3.64,3.09,4.82,5.45,1.18,2.36,1.77,5.1,1.77,8.22s-.59,5.87-1.77,8.25c-1.18,2.38-2.79,4.21-4.82,5.5-2.03,1.29-4.3,1.93-6.81,1.93-2.14,0-4.01-.43-5.61-1.28-1.6-.85-2.85-1.99-3.76-3.4v4.25h-9.31V.06h9.31v17.04c.87-1.42,2.12-2.56,3.76-3.43Zm7.6,8.79c-1.29-1.32-2.88-1.99-4.77-1.99s-3.42.67-4.71,2.01c-1.29,1.34-1.93,3.18-1.93,5.5s.64,4.16,1.93,5.5c1.29,1.34,2.86,2.01,4.71,2.01s3.43-.68,4.74-2.04c1.31-1.36,1.96-3.2,1.96-5.53s-.64-4.15-1.93-5.47Z"/>
        <path class="cls-3" d="m180.46,19.72c1.18-2.36,2.79-4.18,4.82-5.45,2.03-1.27,4.3-1.9,6.81-1.9,2.14,0,4.02.44,5.64,1.31,1.61.87,2.86,2.01,3.73,3.43v-4.3h9.31v30.39h-9.31v-4.3c-.91,1.42-2.17,2.56-3.79,3.43-1.62.87-3.49,1.31-5.64,1.31-2.47,0-4.72-.64-6.75-1.93-2.03-1.29-3.64-3.12-4.82-5.5-1.18-2.38-1.77-5.13-1.77-8.25s.59-5.86,1.77-8.22Zm19.06,2.78c-1.29-1.34-2.86-2.01-4.71-2.01s-3.42.66-4.71,1.99c-1.29,1.33-1.93,3.15-1.93,5.47s.64,4.17,1.93,5.53c1.29,1.36,2.86,2.04,4.71,2.04s3.42-.67,4.71-2.01c1.29-1.34,1.94-3.18,1.94-5.5s-.65-4.16-1.94-5.5Z"/>
        <path class="cls-3" d="m245.92,16.37c2.12,2.31,3.19,5.47,3.19,9.5v17.76h-9.26v-16.5c0-2.03-.53-3.61-1.58-4.74-1.05-1.13-2.47-1.69-4.25-1.69s-3.2.56-4.25,1.69c-1.05,1.13-1.58,2.71-1.58,4.74v16.5h-9.31V13.24h9.31v4.03c.94-1.34,2.21-2.41,3.81-3.19,1.6-.78,3.4-1.17,5.39-1.17,3.56,0,6.4,1.15,8.52,3.46Z"/>
      </g>
      <polygon class="cls-1" points="261.58 .06 261.58 56.66 0 56.66 0 53.88 258.71 53.88 258.71 2.92 178.77 2.92 178.77 .06 261.58 .06"/>
    </g>
  </g>
</svg>