<svg xmlns="http://www.w3.org/2000/svg" width="7.846" height="4.438" viewBox="0 0 7.846 4.438">
  <path id="navigate_next_FILL0_wght400_GRAD0_opsz48" d="M.146.146A.635.635,0,0,0,0,.524.465.465,0,0,0,.146.885L3.168,3.906.129,6.945A.472.472,0,0,0,0,7.314a.528.528,0,0,0,.146.369.485.485,0,0,0,.369.163.518.518,0,0,0,.352-.163L4.284,4.266a.523.523,0,0,0,.12-.172.536.536,0,0,0,0-.378.523.523,0,0,0-.12-.172L.885.146A.465.465,0,0,0,.524,0,.635.635,0,0,0,.146.146Z" transform="translate(0 4.438) rotate(-90)" fill="#242423"/>
</svg>
