<svg xmlns="http://www.w3.org/2000/svg" width="34.875" height="34.1" viewBox="0 0 34.875 34.1">
  <path id="tips_and_updates_FILL0_wght400_GRAD0_opsz48" d="M35.046,15.229l-.891-1.938L32.218,12.4l1.938-.891.891-1.938.891,1.938,1.938.891-1.938.891ZM30.125,8.448,28.769,5.58,25.9,4.224l2.868-1.356L30.125,0l1.356,2.868,2.868,1.356L31.481,5.58ZM14.625,34.1a3.11,3.11,0,0,1-3.139-3.139h6.278A3.11,3.11,0,0,1,14.625,34.1ZM8.348,28.559V26.234H20.9v2.325Zm.194-4.689A12.714,12.714,0,0,1,4.492,19.7,10.788,10.788,0,0,1,3,14.066,11.173,11.173,0,0,1,6.449,5.89a11.173,11.173,0,0,1,8.176-3.449A11.173,11.173,0,0,1,22.8,5.89a11.173,11.173,0,0,1,3.449,8.176A10.9,10.9,0,0,1,24.778,19.7a12.4,12.4,0,0,1-4.069,4.166Zm.853-2.325H19.9a9.03,9.03,0,0,0,2.945-3.216,8.717,8.717,0,0,0,1.085-4.263A8.955,8.955,0,0,0,21.193,7.5a8.955,8.955,0,0,0-6.568-2.732A8.955,8.955,0,0,0,8.057,7.5a8.955,8.955,0,0,0-2.732,6.568A8.717,8.717,0,0,0,6.41,18.329,8.907,8.907,0,0,0,9.394,21.545ZM14.625,21.545Z" transform="translate(-3)" fill="#c63225"/>
</svg>
