<svg xmlns="http://www.w3.org/2000/svg" width="6.501" height="11.492" viewBox="0 0 6.501 11.492">
  <path id="navigate_next_FILL0_wght400_GRAD0_opsz48" d="M17.488,23.752a.93.93,0,0,1-.214-.553.681.681,0,0,1,.214-.528l4.425-4.425-4.451-4.451a.692.692,0,0,1-.189-.541.773.773,0,0,1,.214-.541.71.71,0,0,1,.541-.239.759.759,0,0,1,.515.239l5,5a.766.766,0,0,1,.176.251.786.786,0,0,1,0,.553.766.766,0,0,1-.176.251l-4.979,4.979a.681.681,0,0,1-.528.214A.93.93,0,0,1,17.488,23.752Z" transform="translate(-17.274 -12.474)" fill="currentColor"/>
</svg>
