<svg xmlns="http://www.w3.org/2000/svg" width="13" height="13" viewBox="0 0 13 13">
  <path id="iconmonstr-delivery-11" d="M4.289,9.413,1.652,2.167H.542a.542.542,0,1,1,0-1.083H2.41L5.373,9.222a1.893,1.893,0,0,1,1.159.589l6.1-2.219L13,8.61,7.015,10.788A1.9,1.9,0,1,1,4.289,9.413Zm.856.981a.711.711,0,1,1-.711.711A.711.711,0,0,1,5.146,10.393ZM8.287,3.736l2.582-.94,1.482,4.072L6.173,9.117,4.691,5.045l2.578-.938.718,1.971L9,5.708,8.287,3.736Zm.291-.682L4.506,4.536,3.394,1.482,7.466,0,8.578,3.054Z" fill="currentColor" fill-rule="evenodd"/>
</svg>
