<svg xmlns="http://www.w3.org/2000/svg" viewBox="0 0 35 34.955">
  <path id="design" d="M122.716,200.284l-7-7,3.161-3.161a2.727,2.727,0,0,1,3.794,0l3.206,3.206a2.727,2.727,0,0,1,0,3.794Zm-28.5,21.5v-7.045l8.761-8.761L93,195.948,100.858,188l10.071,10.071,4.787-4.787,7,7-4.787,4.787L128,215.142l-7.9,7.813-10.026-9.981-8.806,8.806Zm10.7-17.748,4.065-4.065-3.3-3.3-2.168,2.168-1.9-1.9,2.168-2.168-2.89-2.89-4.065,4.065Zm15.084,15.129,4.065-4.065-2.89-2.89-2.168,2.168-1.9-1.9,2.168-2.168-3.3-3.3-4.065,4.065Zm-23.077-.09h3.161l18.742-18.742-3.161-3.161L96.929,215.91Z" transform="translate(-93 -188)" fill="currentColor"/>
</svg>
