<svg xmlns="http://www.w3.org/2000/svg" viewBox="0 0 28.85 25.742">
  <path id="double-chevron" d="M225.012,373.2a1.639,1.639,0,0,1,0-2.373l10-10-10.059-10a1.5,1.5,0,0,1-.48-1.158,1.707,1.707,0,0,1,.537-1.158,1.639,1.639,0,0,1,2.373,0l11.133,11.133a1.722,1.722,0,0,1,.4.565,1.66,1.66,0,0,1,.113.622,1.887,1.887,0,0,1-.113.65,1.638,1.638,0,0,1-.4.593L227.329,373.26a1.5,1.5,0,0,1-1.158.48A1.707,1.707,0,0,1,225.012,373.2Zm14.3,0a1.639,1.639,0,0,1,0-2.373l10-10-10.059-10a1.5,1.5,0,0,1-.48-1.158,1.707,1.707,0,0,1,.537-1.158,1.639,1.639,0,0,1,2.373,0l11.133,11.133a1.722,1.722,0,0,1,.4.565,1.659,1.659,0,0,1,.113.622,1.887,1.887,0,0,1-.113.65,1.638,1.638,0,0,1-.4.593L241.626,373.26a1.5,1.5,0,0,1-1.158.48A1.707,1.707,0,0,1,239.309,373.2Z" transform="translate(-224.474 -348)" fill="currentColor"/>
</svg>
