<svg xmlns="http://www.w3.org/2000/svg" width="12" height="12" viewBox="0 0 12 12">
  <path id="download_for_offline_FILL1_wght400_GRAD0_opsz48" d="M9.52,9.385l-.975-.96a.393.393,0,0,0-.308-.112.443.443,0,0,0-.307.127.435.435,0,0,0,0,.63l1.71,1.725a.371.371,0,0,0,.307.127.5.5,0,0,0,.323-.127l1.755-1.74a.393.393,0,0,0,.113-.307.443.443,0,0,0-.127-.307.435.435,0,0,0-.63,0l-.96.945V6.835a.408.408,0,0,0-.135-.307A.444.444,0,0,0,9.97,6.4a.436.436,0,0,0-.45.45ZM7.45,13h5.115a.408.408,0,0,0,.308-.135A.444.444,0,0,0,13,12.55a.436.436,0,0,0-.45-.45H7.435a.408.408,0,0,0-.307.135A.444.444,0,0,0,7,12.55a.436.436,0,0,0,.45.45ZM10,16a6.086,6.086,0,0,1-2.37-.458A5.807,5.807,0,0,1,4.458,12.37,6.086,6.086,0,0,1,4,10a6.047,6.047,0,0,1,.458-2.355,5.856,5.856,0,0,1,1.268-1.9A5.982,5.982,0,0,1,10,4a6.045,6.045,0,0,1,5.535,8.37,5.956,5.956,0,0,1-1.275,1.905,5.856,5.856,0,0,1-1.905,1.268A6.047,6.047,0,0,1,10,16Z" transform="translate(-4 -4)" fill="#256fc6"/>
</svg>
