<svg xmlns="http://www.w3.org/2000/svg" viewBox="0 0 24.416 22.371">
  <path id="favorite_FILL0_wght400_GRAD0_opsz48" d="M16.208,27.671l-1.251-1.129q-3.235-2.96-5.341-5.112a37.766,37.766,0,0,1-3.357-3.846A12.7,12.7,0,0,1,4.5,14.517,8.014,8.014,0,0,1,4,11.74,6.308,6.308,0,0,1,10.409,5.3a6.51,6.51,0,0,1,3.22.824A7.82,7.82,0,0,1,16.208,8.5a8.9,8.9,0,0,1,2.716-2.426A6.364,6.364,0,0,1,22.007,5.3a6.308,6.308,0,0,1,6.409,6.44,8.014,8.014,0,0,1-.5,2.777,12.7,12.7,0,0,1-1.755,3.067A37.766,37.766,0,0,1,22.8,21.43q-2.106,2.152-5.341,5.112Zm0-2.411q3.083-2.838,5.082-4.868a40.311,40.311,0,0,0,3.174-3.556,11.778,11.778,0,0,0,1.648-2.716,6.4,6.4,0,0,0,.473-2.381A4.513,4.513,0,0,0,25.3,8.428a4.434,4.434,0,0,0-3.3-1.3,4.883,4.883,0,0,0-2.9.961,6.824,6.824,0,0,0-2.167,2.7h-1.5a6.751,6.751,0,0,0-2.136-2.686,4.833,4.833,0,0,0-2.9-.977,4.434,4.434,0,0,0-3.3,1.3A4.513,4.513,0,0,0,5.831,11.74a6.521,6.521,0,0,0,.473,2.4,11.886,11.886,0,0,0,1.648,2.747,36.63,36.63,0,0,0,3.189,3.556Q13.156,22.452,16.208,25.26ZM16.208,16.2Z" transform="translate(-4 -5.3)" fill="currentColor"/>
</svg>
