<svg xmlns="http://www.w3.org/2000/svg" width="16" height="14.28" viewBox="0 0 16 14.28">
  <path id="favorite_FILL0_wght400_GRAD0_opsz48" d="M11.18,19.26l-1.06-.98a58.072,58.072,0,0,1-4.3-4.39A6.592,6.592,0,0,1,4,9.52,4.134,4.134,0,0,1,8.2,5.3a4.55,4.55,0,0,1,2.02.49A4.748,4.748,0,0,1,12,7.4a5.8,5.8,0,0,1,1.82-1.61A4.226,4.226,0,0,1,15.8,5.3,4.134,4.134,0,0,1,20,9.52a6.592,6.592,0,0,1-1.82,4.37,58.072,58.072,0,0,1-4.3,4.39l-1.06.98a1.211,1.211,0,0,1-1.64,0Z" transform="translate(-4 -5.3)" fill="#c63225"/>
</svg>
