<svg xmlns="http://www.w3.org/2000/svg" viewBox="0 0 13.722 12.247">
  <path id="favorite_FILL0_wght400_GRAD0_opsz48" d="M10.158,17.273l-.909-.84a49.8,49.8,0,0,1-3.688-3.765A5.653,5.653,0,0,1,4,8.919,3.545,3.545,0,0,1,7.6,5.3a3.9,3.9,0,0,1,1.732.42A4.072,4.072,0,0,1,10.861,7.1,4.975,4.975,0,0,1,12.422,5.72a3.624,3.624,0,0,1,1.7-.42,3.545,3.545,0,0,1,3.6,3.619,5.653,5.653,0,0,1-1.561,3.748,49.8,49.8,0,0,1-3.688,3.765l-.909.84a1.038,1.038,0,0,1-1.407,0Zm.257-9.039A4.031,4.031,0,0,0,9.2,6.861a2.724,2.724,0,0,0-1.6-.532,2.492,2.492,0,0,0-1.852.729,2.537,2.537,0,0,0-.72,1.861A4,4,0,0,0,5.7,11a14.575,14.575,0,0,0,1.6,2.118,24.231,24.231,0,0,0,1.921,1.913q.995.883,1.647,1.484l1.647-1.475a24.488,24.488,0,0,0,1.921-1.93,14.954,14.954,0,0,0,1.6-2.127,3.975,3.975,0,0,0,.669-2.067,2.494,2.494,0,0,0-2.573-2.59,2.741,2.741,0,0,0-1.6.523,4.274,4.274,0,0,0-1.244,1.381.571.571,0,0,1-.189.2.468.468,0,0,1-.24.06.516.516,0,0,1-.249-.06A.435.435,0,0,1,10.415,8.233ZM10.861,11.423Z" transform="translate(-4 -5.3)" fill="currentColor"/>
</svg>
