<svg xmlns="http://www.w3.org/2000/svg" viewBox="0 0 15 15">
  <path id="history" d="M127.438,231a7.123,7.123,0,0,1-5.271-2.2A7.3,7.3,0,0,1,120,223.479h1.25a6.116,6.116,0,0,0,1.792,4.438,5.908,5.908,0,0,0,4.4,1.833,6.059,6.059,0,0,0,4.479-1.854,6.163,6.163,0,0,0,1.833-4.5,5.818,5.818,0,0,0-1.854-4.365,6.206,6.206,0,0,0-4.458-1.781,5.665,5.665,0,0,0-2.656.646,7.244,7.244,0,0,0-2.156,1.708h2.188v1.25h-4.354v-4.333h1.25v2.208a7.928,7.928,0,0,1,2.573-2,7.087,7.087,0,0,1,3.156-.729,7.443,7.443,0,0,1,2.938.583,7.7,7.7,0,0,1,2.406,1.594,7.482,7.482,0,0,1,1.625,2.365,7.183,7.183,0,0,1,.594,2.917,7.33,7.33,0,0,1-.594,2.938,7.541,7.541,0,0,1-1.625,2.4,7.755,7.755,0,0,1-2.406,1.615A7.33,7.33,0,0,1,127.438,231Zm2.667-4.1-3.208-3.167v-4.458h1.25v3.938L131,226Z" transform="translate(-120 -216)" fill="currentColor"/>
</svg>
