<svg xmlns="http://www.w3.org/2000/svg" width="4.438" height="7.846" viewBox="0 0 4.438 7.846">
  <path id="navigate_next_FILL0_wght400_GRAD0_opsz48" d="M17.42,20.174a.635.635,0,0,1-.146-.378.465.465,0,0,1,.146-.361l3.021-3.021L17.4,13.376a.472.472,0,0,1-.129-.369.528.528,0,0,1,.146-.369.485.485,0,0,1,.369-.163.518.518,0,0,1,.352.163l3.416,3.416a.523.523,0,0,1,.12.172.536.536,0,0,1,0,.378.523.523,0,0,1-.12.172l-3.4,3.4a.465.465,0,0,1-.361.146A.635.635,0,0,1,17.42,20.174Z" transform="translate(-17.274 -12.474)" fill="currentColor"/>
</svg>
