<svg xmlns="http://www.w3.org/2000/svg" viewBox="0 0 50.721 50.638">
  <g id="envelope-open-svgrepo-com" transform="translate(-5.637 7.153) rotate(-14)">
    <path id="Path_4" data-name="Path 4" d="M34.1,46c-.121,0-.242,0-.364-.005h-16.1c-.121,0-.243.005-.363.005A12.444,12.444,0,0,1,4.837,33.989q0-.035,0-.071V23.86l-.013-4.852A6.132,6.132,0,0,1,8.116,12.6L18.935,6.149a12.935,12.935,0,0,1,13.5,0l10.818,6.461a6.132,6.132,0,0,1,3.294,6.4l-.013,4.861v10.05q0,.036,0,.072A12.446,12.446,0,0,1,34.1,46ZM17.6,41.954H33.827a8.374,8.374,0,0,0,8.662-8.066V23.871l.013-5.035a2.023,2.023,0,0,1,.035-.372A2.083,2.083,0,0,0,41.4,16.2q-.08-.039-.156-.084l-10.9-6.508L30.33,9.6a8.895,8.895,0,0,0-9.294,0l-.021.012-10.9,6.5q-.075.045-.155.083a2.083,2.083,0,0,0-1.137,2.26,2.023,2.023,0,0,1,.036.372l.013,5.027V33.882a8.37,8.37,0,0,0,8.662,8.073Z" transform="translate(0)" fill="#efefef"/>
    <path id="Path_5" data-name="Path 5" d="M7.817,11.167a2.02,2.02,0,0,0-2.039,3.488Zm12.207,9.475,1.037-1.734-.018-.01Zm11.225,0L30.229,18.9l-.018.011Zm14.246-5.987a2.02,2.02,0,1,0-2.039-3.488ZM30.535,13.074a2.02,2.02,0,0,0,.98-3.92Zm-4.9-3.307.49-1.96a2.02,2.02,0,0,0-.98,0ZM19.76,9.154a2.02,2.02,0,1,0,.98,3.92Zm-13.982,5.5L19,22.386,21.043,18.9,7.817,11.167Zm13.209,7.721a12.955,12.955,0,0,0,13.3,0l-2.074-3.468a8.915,8.915,0,0,1-9.151,0Zm13.281.01,13.226-7.731-2.039-3.488L30.229,18.9ZM31.515,9.154,26.127,7.807l-.98,3.92,5.387,1.347ZM25.147,7.807,19.76,9.154l.98,3.92,5.387-1.347Z" transform="translate(0.045 5.923)" fill="#efefef"/>
  </g>
</svg>
