<svg xmlns="http://www.w3.org/2000/svg" width="10" height="10" viewBox="0 0 10 10">
  <path id="pending_FILL1_wght400_GRAD0_opsz48" d="M82.326,181.625a.6.6,0,0,0,.442-.183A.607.607,0,0,0,82.95,181a.6.6,0,0,0-.183-.442.607.607,0,0,0-.444-.181.6.6,0,0,0-.442.183A.607.607,0,0,0,81.7,181a.6.6,0,0,0,.183.442A.607.607,0,0,0,82.326,181.625Zm2.675,0a.6.6,0,0,0,.442-.183.607.607,0,0,0,.181-.444.6.6,0,0,0-.183-.442.607.607,0,0,0-.444-.181.6.6,0,0,0-.442.183.607.607,0,0,0-.181.444.6.6,0,0,0,.183.442A.607.607,0,0,0,85,181.625Zm2.662,0a.6.6,0,0,0,.442-.183.607.607,0,0,0,.181-.444.6.6,0,0,0-.183-.442.607.607,0,0,0-.444-.181.6.6,0,0,0-.442.183.607.607,0,0,0-.181.444.6.6,0,0,0,.183.442A.607.607,0,0,0,87.664,181.625ZM85,186a4.84,4.84,0,0,1-1.944-.394,5.051,5.051,0,0,1-2.666-2.667,5,5,0,0,1,0-3.891,5,5,0,0,1,1.075-1.586,5.132,5.132,0,0,1,1.592-1.069,5,5,0,0,1,3.891,0,5,5,0,0,1,2.654,2.656,5,5,0,0,1,0,3.89,5.106,5.106,0,0,1-1.069,1.589A5.048,5.048,0,0,1,86.95,185.6,4.836,4.836,0,0,1,85,186Z" transform="translate(-80 -176)" fill="currentColor"/>
</svg>
