<svg xmlns="http://www.w3.org/2000/svg" width="10.943" height="13.678" viewBox="0 0 10.943 13.678">
  <path id="location_on_FILL1_wght400_GRAD0_opsz48" d="M13.471,10.668a1.2,1.2,0,1,0-.846-.351A1.153,1.153,0,0,0,13.471,10.668Zm0,7.01a22.735,22.735,0,0,1-4.112-4.351A6.767,6.767,0,0,1,8,9.608,5.289,5.289,0,0,1,9.65,5.522a5.559,5.559,0,0,1,7.643,0,5.289,5.289,0,0,1,1.65,4.086,6.767,6.767,0,0,1-1.359,3.719A22.735,22.735,0,0,1,13.471,17.678Z" transform="translate(-8 -4)" fill="currentColor"/>
</svg>
