<svg xmlns="http://www.w3.org/2000/svg" viewBox="0 0 35 31.5">
  <path id="printer"  d="M105.287,224.4v-5.775H89.713V224.4H87.088v-7.087A1.289,1.289,0,0,1,88.4,216h18.2a1.289,1.289,0,0,1,1.313,1.313V224.4Zm-22.662,2.625h0Zm26.206,4.156a1.346,1.346,0,1,0-.919-.394A1.259,1.259,0,0,0,108.831,231.181ZM89.713,244.875h15.575v-8.4H89.713Zm0,2.625a2.633,2.633,0,0,1-2.625-2.625V239.8H81.313A1.289,1.289,0,0,1,80,238.488v-9.45a4.556,4.556,0,0,1,4.638-4.637h25.725A4.555,4.555,0,0,1,115,229.037v9.45a1.289,1.289,0,0,1-1.312,1.313h-5.775v5.075a2.633,2.633,0,0,1-2.625,2.625Zm22.662-10.325v-8.147a1.927,1.927,0,0,0-.579-1.434,1.965,1.965,0,0,0-1.434-.569H84.638a1.977,1.977,0,0,0-2.013,2.012v8.138h4.463V233.85h20.825v3.325Z" transform="translate(-80 -216)" fill="currentColor"/>
</svg>
