<svg xmlns="http://www.w3.org/2000/svg" viewBox="0 0 22.673 22">
  <path id="person_FILL0_wght400_GRAD0_opsz48" d="M19.337,19.578a5.1,5.1,0,0,1-5.314-5.314A5.1,5.1,0,0,1,19.337,8.95a5.1,5.1,0,0,1,5.314,5.314,5.1,5.1,0,0,1-5.314,5.314ZM8,30.95V27.62a3.9,3.9,0,0,1,.673-2.3,4.321,4.321,0,0,1,1.736-1.452,26.629,26.629,0,0,1,4.552-1.594,18.4,18.4,0,0,1,4.375-.531,17.629,17.629,0,0,1,4.357.549,30.178,30.178,0,0,1,4.535,1.576A4.271,4.271,0,0,1,30,25.317a3.9,3.9,0,0,1,.673,2.3v3.33Zm2.126-2.126H28.548v-1.2a1.941,1.941,0,0,0-.337-1.081,2.133,2.133,0,0,0-.833-.762,18.812,18.812,0,0,0-4.145-1.506,18.329,18.329,0,0,0-3.9-.407,18.828,18.828,0,0,0-3.932.407,17.993,17.993,0,0,0-4.145,1.506,2.132,2.132,0,0,0-1.134,1.842Zm9.211-11.372a3.09,3.09,0,0,0,3.188-3.188,3.189,3.189,0,1,0-6.377,0,3.09,3.09,0,0,0,3.188,3.188ZM19.337,14.264ZM19.337,28.824Z" transform="translate(-8 -8.95)" fill="currentColor"/>
</svg>
