<svg xmlns="http://www.w3.org/2000/svg" width="33.816" height="24.555" viewBox="0 0 33.816 24.555">
  <path id="local_shipping_FILL0_wght400_GRAD0_opsz48" d="M9.071,32.555a4.371,4.371,0,0,1-3.209-1.326,4.371,4.371,0,0,1-1.326-3.209H2V10.306a2.212,2.212,0,0,1,.692-1.614A2.212,2.212,0,0,1,4.306,8H26.555v6.417H30.59l5.226,6.955v6.648H33.088a4.538,4.538,0,0,1-7.743,3.209,4.371,4.371,0,0,1-1.326-3.209H13.605a4.526,4.526,0,0,1-4.534,4.534Zm0-2.306a2.229,2.229,0,1,0-1.576-3.8,2.229,2.229,0,0,0,1.576,3.8ZM4.306,25.715h.845A5.091,5.091,0,0,1,6.8,24.063a4.324,4.324,0,0,1,4.477.019,5.354,5.354,0,0,1,1.672,1.633h11.3V10.306H4.306Zm24.248,4.534a2.23,2.23,0,1,0-1.576-.653A2.147,2.147,0,0,0,28.553,30.249Zm-2-7.839H33.7l-4.265-5.687H26.555ZM14.3,18.414Z" transform="translate(-2 -8)" fill="#c63225"/>
</svg>
