<svg id="_7341139_e-commerce_online_shopping_ui_shopping_bag_icon" data-name="7341139_e-commerce_online_shopping_ui_shopping bag_icon" xmlns="http://www.w3.org/2000/svg" width="44.24" height="52.002" viewBox="0 0 44.24 52.002">
  <path id="Path_14" data-name="Path 14" d="M46.644,21.68A5.291,5.291,0,0,0,41.328,17H39.209V14.4a10.4,10.4,0,1,0-20.8,0V17H16.29a5.291,5.291,0,0,0-5.317,4.68L9.309,37.448l-.468,4.563a7.8,7.8,0,1,1-.585,5.681L8,50.292a5.057,5.057,0,0,0,.494,2.756A10.4,10.4,0,0,0,15.809,56H44.266a5.2,5.2,0,0,0,5.343-5.72ZM21.009,14.4a7.8,7.8,0,1,1,15.6,0V17h-15.6ZM46.345,52.489a2.769,2.769,0,0,1-2.08.91H22.686a10.4,10.4,0,0,0,2.223-2.6,1.209,1.209,0,0,0,.312,0H41.809a1.3,1.3,0,0,0,0-2.6H25.871a10.712,10.712,0,0,0,.338-2.6,10.4,10.4,0,0,0-10.4-10.4,10.27,10.27,0,0,0-3.679.676L13.56,21.94a2.691,2.691,0,0,1,2.73-2.34h2.119v3.757a1.95,1.95,0,1,0,2.6,0V19.6h15.6v3.757a1.95,1.95,0,1,0,2.6,0V19.6h2.119a2.691,2.691,0,0,1,2.73,2.34l2.951,28.6a2.47,2.47,0,0,1-.663,1.95Z" transform="translate(-5.394 -4)" fill="#8d8d8d"/>
  <path id="Path_15" data-name="Path 15" d="M16.4,28a8.242,8.242,0,0,0-.988,0H15.09l-.65.1-.364.078-.572.143-.364.117-.572.208-.312.13-.637.3-.208.1-.806.494-.091.065-.611.507v.065c-.169.143-.338.286-.494.442s-.364.338-.533.52-.325.338-.468.52-.234.3-.338.455l-.3.4-.325.546a5.2,5.2,0,0,0-.26.455,4.082,4.082,0,0,0-.234.481c-.078.169-.156.351-.221.52s-.13.325-.182.481l-.182.611-.117.455a6.3,6.3,0,0,0-.117.715v.39Q6.041,37.854,6,38.4a9.594,9.594,0,0,0,0,1.066q-.009.188,0,.377a5.85,5.85,0,0,0,.1.663.625.625,0,0,0,.1.416,4.3,4.3,0,0,0,.156.585,1.39,1.39,0,0,0,.143.429c.052.143.13.364.208.533s.143.3.208.455a4.991,4.991,0,0,0,.234.455c.091.182.208.351.312.52a2.939,2.939,0,0,0,.208.338c.143.221.312.429.481.65a1.3,1.3,0,0,1,.1.143c.234.273.481.546.741.806a7.245,7.245,0,0,0,.637.559h0c.182.156.39.3.585.442l.234.169.429.26c.143.078.286.182.442.26l.247.117.663.312h.091a10.842,10.842,0,0,0,1.846.559h.1a6.981,6.981,0,0,0,.91.143A9.517,9.517,0,0,0,16.4,48.8a10.4,10.4,0,1,0,0-20.8Z" transform="translate(-5.989 3.196)" fill="#62a360"/>
  <path id="Path_16" data-name="Path 16" d="M14.243,40.559a1.3,1.3,0,0,1-.9-.364L10.9,37.881a1.3,1.3,0,1,1,1.807-1.872l1.534,1.469L17.4,34.449a1.3,1.3,0,1,1,1.846,1.833l-4.069,3.9A1.3,1.3,0,0,1,14.243,40.559Z" transform="translate(-4.634 5.019)" fill="#fff"/>
</svg>
