<svg xmlns="http://www.w3.org/2000/svg" viewBox="0 0 23.928 24.386">
  <path id="shopping_cart_FILL0_wght400_GRAD0_opsz48" d="M9.753,28.386a2.2,2.2,0,1,1,1.557-3.754,2.2,2.2,0,0,1-1.557,3.754Zm12.208,0a2.188,2.188,0,1,1,1.557-.641A2.119,2.119,0,0,1,21.961,28.386ZM8.166,8.242,11.523,15.2h8.79l3.815-6.959ZM7.25,6.411H25.227a1.164,1.164,0,0,1,1.068.641,1.213,1.213,0,0,1,0,1.282l-4.12,7.416a2.731,2.731,0,0,1-.87.931,2.1,2.1,0,0,1-1.175.351H10.882L9.173,20.206H24.158v1.831H9.448A2.048,2.048,0,0,1,7.6,21.183a1.756,1.756,0,0,1,.015-1.923l1.953-3.6L4.931,5.831H2.55V4H6.121Zm4.273,8.79h0Z" transform="translate(-2.55 -4)" fill="currentColor"/>
</svg>
