<svg xmlns="http://www.w3.org/2000/svg" viewBox="0 0 31.292 28.163">
  <path id="support" d="M18.082,34.163V31.816h13.3V19.925a10.186,10.186,0,0,0-.978-4.361,12.543,12.543,0,0,0-2.621-3.7,13.053,13.053,0,0,0-3.755-2.562,10.493,10.493,0,0,0-8.762,0,13.053,13.053,0,0,0-3.755,2.562,12.543,12.543,0,0,0-2.621,3.7,10.186,10.186,0,0,0-.978,4.361v9.544H7.129a3.013,3.013,0,0,1-2.21-.919A3.013,3.013,0,0,1,4,26.34V23.211a2.914,2.914,0,0,1,.43-1.584,3.435,3.435,0,0,1,1.134-1.115l.117-2.073a14.191,14.191,0,0,1,1.623-5.163,13.743,13.743,0,0,1,3.168-3.912A14.238,14.238,0,0,1,14.737,6.88a14.24,14.24,0,0,1,9.857,0,13.773,13.773,0,0,1,4.244,2.5A14.286,14.286,0,0,1,31.987,13.3a13.971,13.971,0,0,1,1.623,5.1l.117,2.034a2.846,2.846,0,0,1,1.565,2.542v3.6a2.746,2.746,0,0,1-.43,1.525,2.843,2.843,0,0,1-1.134,1.017v2.7a2.337,2.337,0,0,1-2.347,2.347ZM14.952,22.82a1.126,1.126,0,0,1-.821-.352,1.171,1.171,0,0,1-.352-.861,1.063,1.063,0,0,1,.352-.8,1.207,1.207,0,0,1,.861-.332,1.093,1.093,0,0,1,.8.332,1.14,1.14,0,0,1,.332.841,1.159,1.159,0,0,1-.332.821A1.107,1.107,0,0,1,14.952,22.82Zm9.388,0a1.126,1.126,0,0,1-.821-.352,1.171,1.171,0,0,1-.352-.861,1.063,1.063,0,0,1,.352-.8,1.207,1.207,0,0,1,.861-.332,1.093,1.093,0,0,1,.8.332,1.14,1.14,0,0,1,.332.841,1.159,1.159,0,0,1-.332.821A1.107,1.107,0,0,1,24.34,22.82ZM10.3,20.786a8.972,8.972,0,0,1,.645-4.185,9.682,9.682,0,0,1,2.151-3.188,9.722,9.722,0,0,1,6.63-2.719,8.47,8.47,0,0,1,5.985,2.249,9.521,9.521,0,0,1,2.973,5.613,11.312,11.312,0,0,1-6.474-1.975,13.017,13.017,0,0,1-4.322-5.026,12.492,12.492,0,0,1-2.64,5.613A12.172,12.172,0,0,1,10.3,20.786Z" transform="translate(-4 -6)" fill="currentColor"/>
</svg>
