<svg xmlns="http://www.w3.org/2000/svg" width="10.532" height="12.639" viewBox="0 0 10.532 12.639">
  <path id="iconmonstr-trash-can-27" d="M10.952,12.639H3.58a1.054,1.054,0,0,1-1.053-1.053V3.16h9.479v8.426a1.054,1.054,0,0,1-1.053,1.053M6.213,5.266a.527.527,0,1,0-1.053,0v4.74a.527.527,0,1,0,1.053,0Zm3.16,0a.527.527,0,1,0-1.053,0v4.74a.527.527,0,1,0,1.053,0Zm3.16-2.633H2V1.58H5.16V.79A.791.791,0,0,1,5.95,0H8.583a.791.791,0,0,1,.79.79v.79h3.16ZM6.213,1.58H8.319V1.053H6.213Z" transform="translate(-2)" fill="#256fc6" fill-rule="evenodd"/>
</svg>
