<svg xmlns="http://www.w3.org/2000/svg" width="16" height="16" viewBox="0 0 16 16">
  <g id="visibility" transform="translate(-1750 -132)">
    <rect id="Rectangle_231" data-name="Rectangle 231" width="16" height="16" transform="translate(1750 132)" fill="#fff" opacity="0"/>
    <path id="visibility_FILL0_wght400_GRAD0_opsz48" d="M54.727,264.385a3.019,3.019,0,1,0-2.15-.883A2.92,2.92,0,0,0,54.727,264.385Zm-.006-1.035a1.917,1.917,0,0,1-1.414-.584,1.938,1.938,0,0,1-.58-1.418,1.917,1.917,0,0,1,.584-1.414,1.938,1.938,0,0,1,1.418-.58,1.917,1.917,0,0,1,1.414.584,1.938,1.938,0,0,1,.58,1.418,1.917,1.917,0,0,1-.584,1.414A1.938,1.938,0,0,1,54.72,263.35Zm0,3.354a7.965,7.965,0,0,1-4.487-1.338,9.007,9.007,0,0,1-3.128-3.534.642.642,0,0,1-.083-.216,1.321,1.321,0,0,1,0-.529.642.642,0,0,1,.083-.216,9.007,9.007,0,0,1,3.128-3.534,8.192,8.192,0,0,1,8.973,0,9.007,9.007,0,0,1,3.128,3.534.643.643,0,0,1,.083.216,1.321,1.321,0,0,1,0,.529.642.642,0,0,1-.083.216,9.007,9.007,0,0,1-3.128,3.534A7.965,7.965,0,0,1,54.725,266.7ZM54.725,261.352Zm0,4.282a7.179,7.179,0,0,0,3.972-1.168,7.583,7.583,0,0,0,2.756-3.113,7.59,7.59,0,0,0-2.753-3.113,7.331,7.331,0,0,0-7.942,0,7.71,7.71,0,0,0-2.774,3.113,7.717,7.717,0,0,0,2.771,3.113A7.164,7.164,0,0,0,54.722,265.633Z" transform="translate(1703.201 -121.6)" fill="#8d8d8d"/>
  </g>
</svg>
