<svg xmlns="http://www.w3.org/2000/svg" width="16" height="16" viewBox="0 0 16 16">
  <g id="visibility-off" transform="translate(-1768 -132)">
    <rect id="Rectangle_230" data-name="Rectangle 230" width="16" height="16" transform="translate(1768 132)" fill="#fff" opacity="0"/>
    <path id="visibility_off_FILL0_wght400_GRAD0_opsz48" d="M57.383,211.725l-.785-.785a1.77,1.77,0,0,0-.482-2.105,1.906,1.906,0,0,0-2.052-.428l-.785-.785a2.156,2.156,0,0,1,.678-.285,3.3,3.3,0,0,1,.767-.089,3.015,3.015,0,0,1,3.033,3.033,3.119,3.119,0,0,1-.1.776A2.356,2.356,0,0,1,57.383,211.725Zm2.3,2.3-.714-.714a8.366,8.366,0,0,0,1.525-1.436,5.733,5.733,0,0,0,.954-1.6,7.121,7.121,0,0,0-2.676-3.131A7.006,7.006,0,0,0,54.9,206a8.568,8.568,0,0,0-1.534.143,5.689,5.689,0,0,0-1.231.339l-.821-.839a8.09,8.09,0,0,1,1.6-.5,8.823,8.823,0,0,1,1.9-.214,8,8,0,0,1,4.442,1.32,8.563,8.563,0,0,1,3.1,3.55.568.568,0,0,1,.071.214,1.9,1.9,0,0,1,.018.268,2.091,2.091,0,0,1-.018.277.58.58,0,0,1-.071.223,8.562,8.562,0,0,1-1.142,1.8A8.409,8.409,0,0,1,59.685,214.026Zm.642,3.639-2.6-2.551a6.932,6.932,0,0,1-1.409.384,9.433,9.433,0,0,1-1.588.134,8.173,8.173,0,0,1-4.514-1.32,8.522,8.522,0,0,1-3.122-3.55.751.751,0,0,1-.071-.223A1.71,1.71,0,0,1,47,210.28a1.407,1.407,0,0,1,.027-.277,1.293,1.293,0,0,1,.062-.223,8.464,8.464,0,0,1,.954-1.561,9.641,9.641,0,0,1,1.365-1.436l-1.873-1.873a.517.517,0,0,1,0-.749.538.538,0,0,1,.767,0l12.774,12.774a.473.473,0,0,1,.143.348.535.535,0,0,1-.143.366.448.448,0,0,1-.366.178A.523.523,0,0,1,60.327,217.666ZM50.14,207.532a6.566,6.566,0,0,0-1.276,1.267,5.872,5.872,0,0,0-.883,1.481,7.144,7.144,0,0,0,2.739,3.131,7.624,7.624,0,0,0,4.148,1.151,9.34,9.34,0,0,0,1.16-.071,2.771,2.771,0,0,0,.856-.214l-1.142-1.142a1.867,1.867,0,0,1-.482.134,3.478,3.478,0,0,1-.535.045,2.95,2.95,0,0,1-2.141-.874,2.9,2.9,0,0,1-.892-2.159,3.251,3.251,0,0,1,.045-.535,2.184,2.184,0,0,1,.134-.482ZM55.581,210.066ZM53.512,211.1Z" transform="translate(1721.201 -70.5)" fill="#8d8d8d"/>
  </g>
</svg>
