<svg xmlns="http://www.w3.org/2000/svg" viewBox="0 0 33.73 32.197">
  <path id="warranty" d="M13.729,35.2l-2.913-4.983L5.028,29.026l.652-5.634L2,19.1l3.68-4.255L5.028,9.209l5.788-1.188L13.729,3l5.136,2.376L24,3l2.951,5.021L32.7,9.209l-.652,5.634L35.73,19.1l-3.68,4.293.652,5.634-5.749,1.188L24,35.2l-5.136-2.376Zm1.035-3.028,4.1-1.725,4.216,1.725,2.568-3.833,4.485-1.15-.46-4.561,3.1-3.526-3.1-3.6.46-4.561L25.649,9.861,23,6.028l-4.14,1.725L14.649,6.028,12.081,9.861,7.6,10.934l.46,4.561-3.1,3.6,3.1,3.526L7.6,27.263l4.485,1.073ZM18.865,19.1Zm-1.648,5.1,8.7-8.624L24.193,14l-6.976,6.9-3.641-3.795L11.812,18.83Z" transform="translate(-2 -3)" fill="currentColor"/>
</svg>
